<?xml version="1.0" standalone="no"?><!DOCTYPE svg PUBLIC "-//W3C//DTD SVG 1.1//EN" "http://www.w3.org/Graphics/SVG/1.1/DTD/svg11.dtd"><svg t="1676354409959" class="icon" viewBox="0 0 1024 1024" version="1.1" xmlns="http://www.w3.org/2000/svg" p-id="4270" xmlns:xlink="http://www.w3.org/1999/xlink" width="200" height="200"><path d="M45.065598 431.290351H21.327779V108.409102A87.081323 87.081323 0 0 1 108.409102 21.327779h322.881249v23.737819c0 213.29912-172.925634 386.224754-386.224753 386.224753zM955.249904 735.616433l-43.12477-3.177839a33.058058 33.058058 0 0 1-29.133746-23.097985 163.328133 163.328133 0 0 0-17.446124-37.83548 33.143369 33.143369 0 0 1 0.213278-35.382786l22.415496-34.934902c5.033356-7.827295 3.220495-18.747118-3.924311-23.801802l-35.660047-25.294746a11.900901 11.900901 0 0 0-9.448206-2.132778 13.756418 13.756418 0 0 0-8.93634 6.377006l-22.415496 34.934902a32.972747 32.972747 0 0 1-34.721624 14.481563 139.291726 139.291726 0 0 0-37.408925-2.772612 32.588847 32.588847 0 0 1-31.991669-19.088362l-16.742307-36.129258a14.652184 14.652184 0 0 0-8.403145-7.97659 11.517001 11.517001 0 0 0-9.384223 0.682489l-38.581952 19.834835c-7.486051 3.839-10.621234 14.481562-6.782234 22.820724l16.678323 35.851997a33.122041 33.122041 0 0 1-5.18265 35.830669 130.952564 130.952564 0 0 0-11.687623 15.718573 154.242499 154.242499 0 0 0-10.173351 18.555168c-5.801156 12.455423-18.448529 20.048112-32.396896 19.045707l-36.171914-2.644645a13.116584 13.116584 0 0 0-9.234928 3.199167 16.678323 16.678323 0 0 0-5.587879 11.794262l-2.943233 45.172236c-0.597178 9.106962 5.289289 16.99824 13.116584 17.595418l36.939714 2.729956a33.03673 33.03673 0 0 1 29.00578 22.735413c4.137589 12.647373 9.746795 24.654913 16.699651 35.681374 6.824889 10.85584 6.782234 24.697568-0.149295 35.489425l-22.415496 34.934902c-5.033356 7.827295-3.199167 18.768446 4.009623 23.887113l35.660047 25.294746c3.625722 2.559334 7.059495 2.559334 9.320239 2.11145a13.863056 13.863056 0 0 0 8.978995-6.419661l22.415496-34.934903a33.015402 33.015402 0 0 1 34.700297-14.481562 142.000354 142.000354 0 0 0 38.21938 2.772612l2.090123-0.063984c12.817995 0 24.526946 7.400739 29.96553 19.10969l18.469856 39.66967a14.609529 14.609529 0 0 0 8.381818 7.976589 11.836917 11.836917 0 0 0 9.426878-0.725144l38.60328-19.792179c7.614017-3.924311 10.749201-14.396251 6.846217-22.884708l-18.619151-40.053569a33.058058 33.058058 0 0 1 5.054684-35.660047 141.915043 141.915043 0 0 0 20.240062-31.458474 33.058058 33.058058 0 0 1 32.375569-18.939068l44.041864 3.241822a13.009945 13.009945 0 0 0 9.064307-3.199166 17.254173 17.254173 0 0 0 5.7585-12.050196l2.964561-44.937631c0.597178-9.042978-5.353273-17.126207-12.988617-17.659401z m-109.710097 92.327956c-17.936662 27.918063-45.321531 46.729164-77.121249 52.871565a115.063369 115.063369 0 0 1-88.979495-19.408279c-53.426087-37.899464-67.715699-114.167602-31.863702-170.067711 17.915335-27.918063 45.300203-46.729164 77.099921-52.892893a114.95673 114.95673 0 0 1 88.979495 19.429607c53.447415 37.878136 67.758355 114.18893 31.88503 170.067711z" fill="#02C9ED" p-id="4271"></path><path d="M915.537579 0H108.217152A108.345118 108.345118 0 0 0 0 108.217152v807.320427A108.323791 108.323791 0 0 0 108.217152 1023.733403h356.792418a21.327779 21.327779 0 1 0 0-42.655559H108.217152A65.625577 65.625577 0 0 1 42.655558 915.537579V108.217152A65.625577 65.625577 0 0 1 108.217152 42.655558h807.320427A65.625577 65.625577 0 0 1 981.077844 108.217152v343.014673a21.327779 21.327779 0 1 0 42.655559 0V108.217152A108.323791 108.323791 0 0 0 915.537579 0z" p-id="4272"></path><path d="M336.872273 199.073491a44.08452 44.08452 0 0 0-88.190367 0c0 16.912929 9.640156 31.437147 23.609851 38.837886 8.680406 124.746181 112.674658 223.643093 239.574944 223.643093s230.894538-98.896912 239.574944-223.643093a43.89257 43.89257 0 0 0 23.609852-38.837886 44.08452 44.08452 0 0 0-88.169039 0c0 16.251768 8.893684 30.285446 21.967612 37.94212-8.125884 101.626868-93.266379 181.883301-196.962041 181.883301-103.674335 0-188.814829-80.256433-196.962041-181.883301a43.956553 43.956553 0 0 0 21.946285-37.94212zM960.261932 670.332101l-29.133747-2.175433a217.287415 217.287415 0 0 0-11.453017-24.676241l15.377329-23.972424c20.581307-32.098308 12.412768-75.862911-18.213924-97.531934l-35.681374-25.316074a66.009477 66.009477 0 0 0-51.229326-11.175757 67.822338 67.822338 0 0 0-44.404436 30.413414l-14.780151 23.055329a197.004697 197.004697 0 0 0-22.458152-1.642239l-10.898495-23.481885a68.56881 68.56881 0 0 0-40.010914-36.49183 65.988149 65.988149 0 0 0-51.975798 3.689706l-38.581953 19.856162c-33.356647 17.062223-47.432981 59.227243-31.330507 94.076834l11.111773 23.908441a206.026347 206.026347 0 0 0-14.69484 22.94869l-22.010268-1.599583a66.414705 66.414705 0 0 0-48.904598 16.401062 70.936194 70.936194 0 0 0-24.207029 49.309826l-2.964562 45.172236c-2.516678 38.773903 25.891924 72.578433 63.364832 75.372372l23.24728 1.72755c3.0712 7.635345 6.568956 15.07874 10.450611 22.287529L555.503338 874.438948c-20.559979 32.07698-12.348784 75.862911 18.320562 97.595918l35.681375 25.337402a65.924166 65.924166 0 0 0 51.144014 11.111773 67.822338 67.822338 0 0 0 44.383109-30.456069l14.780151-23.055329c7.741984 1.023733 15.547951 1.599583 23.396574 1.706222l12.562062 26.979641a68.504827 68.504827 0 0 0 40.010913 36.49183 65.966821 65.966821 0 0 0 52.018454-3.775017l38.560625-19.770851h0.021328c33.356647-17.147534 47.454309-59.35521 31.373163-94.162146l-13.095257-28.13134a196.812747 196.812747 0 0 0 12.839323-19.813507l30.050841 2.218089a66.116116 66.116116 0 0 0 48.733976-16.42239 71.341422 71.341422 0 0 0 24.313668-49.437793l2.985889-44.958958c2.623317-38.98718-25.806613-72.877022-63.322176-75.564322z m17.744712 117.622702a28.835158 28.835158 0 0 1-9.725467 20.112096 24.484291 24.484291 0 0 1-17.638074 6.05709l-44.041864-3.241823a21.22114 21.22114 0 0 0-20.879896 12.19949 151.917771 151.917771 0 0 1-9.768122 17.638073c-3.966967 6.185056-8.083228 11.751606-12.263474 16.529029a21.327779 21.327779 0 0 0-3.26315 23.012674l18.619152 40.074897c6.611612 14.268284 1.1517 31.437147-12.135507 38.262036l-38.560625 19.770851a23.503213 23.503213 0 0 1-18.640479 1.364978 26.169185 26.169185 0 0 1-15.206706-14.097662l-18.469857-39.669669a21.327779 21.327779 0 0 0-19.322968-12.327457l-1.322322 0.042656a153.389388 153.389388 0 0 1-41.418548-3.049872 21.285124 21.285124 0 0 0-22.37284 9.341567l-22.415496 34.95623c-3.966967 6.185056-9.874762 10.301317-16.61434 11.62364a23.759146 23.759146 0 0 1-18.34189-4.052278l-35.681375-25.316074c-12.135506-8.616423-15.398657-26.830346-7.080823-39.776309l22.436824-34.95623c4.457506-6.952856 4.500161-15.867868 0.106639-22.884707a171.795262 171.795262 0 0 1-17.95799-38.304691 21.327779 21.327779 0 0 0-18.683135-14.652185l-36.961041-2.751283c-14.225629-1.066389-24.974829-14.566873-23.972424-30.050841l2.964561-45.172236c0.511867-7.891278 3.924311-14.950773 9.618829-19.898819 5.054684-4.393523 11.43169-6.483645 17.787368-6.057089l36.150586 2.623317a20.901224 20.901224 0 0 0 20.879895-12.242145c3.220495-6.931528 6.931528-13.649779 11.005134-20.005457 4.244228-6.654267 8.424473-12.220817 12.732685-17.083551a21.327779 21.327779 0 0 0 3.369789-23.119313l-16.678324-35.937308c-6.504973-14.012351-0.981078-31.50113 12.071523-38.155397l38.581953-19.856162c5.801156-3.007217 12.412768-3.4551 18.576496-1.322323 6.654267 2.3034 12.071523 7.315428 15.228034 14.11899l16.742307 36.150586a21.157157 21.157157 0 0 0 20.623962 12.306128 151.704494 151.704494 0 0 1 40.565436 3.028545c8.659078 1.855517 17.57409-1.898172 22.394169-9.341567l22.415496-34.934903c3.945639-6.163728 9.853434-10.258662 16.61434-11.580984 6.419662-1.258339 12.945962 0.213278 18.448529 4.073606l35.681374 25.337402c12.306129 8.701734 15.441312 26.51043 6.974184 39.690997l-22.415496 34.95623a21.327779 21.327779 0 0 0-0.127967 22.820724c7.955262 12.754012 14.246957 26.382463 18.683135 40.52278a21.285124 21.285124 0 0 0 18.768446 14.88679l43.103442 3.177839c14.204301 1.023733 24.889518 14.545545 23.823129 30.136152l-3.007217 45.022942z" p-id="4273"></path><path d="M807.96026 656.405061a102.885207 102.885207 0 0 0-79.957844-17.467451c-28.62188 5.56655-53.29812 22.500807-69.464577 47.688914-32.524863 50.696131-19.621557 119.862119 28.792502 154.178516a103.418401 103.418401 0 0 0 79.957844 17.446124c28.62188-5.56655 53.276793-22.500807 69.44325-47.688915 32.524863-50.674803 19.600229-119.840791-28.771175-154.157188z m-7.144806 131.123187c-9.810778 15.292018-24.590929 25.529352-41.653153 28.877813a61.040104 61.040104 0 0 1-47.177047-10.365301c-30.072169-21.327779-37.942119-64.53786-17.531435-96.358906 9.810778-15.292018 24.612257-25.529352 41.674481-28.856486 3.881656-0.746472 7.741984-1.130372 11.602312-1.130372a61.424004 61.424004 0 0 1 35.553408 11.495673c30.072169 21.327779 37.942119 64.559188 17.531434 96.337579z" p-id="4274"></path></svg>